<?xml version="1.0" standalone="no"?>
<!DOCTYPE svg PUBLIC "-//W3C//DTD SVG 20010904//EN"
 "http://www.w3.org/TR/2001/REC-SVG-20010904/DTD/svg10.dtd">
<svg version="1.0" xmlns="http://www.w3.org/2000/svg"
 width="1000.000000pt" height="1000.000000pt" viewBox="0 0 1000.000000 1000.000000"
 preserveAspectRatio="xMidYMid meet">
<metadata>
Created by potrace 1.11, written by Peter Selinger 2001-2013
</metadata>
<g transform="translate(0.000000,1000.000000) scale(0.100000,-0.100000)"
fill="#000000" stroke="none">
<path d="M4857 9973 c-1 -1 -53 -4 -116 -8 -63 -3 -118 -8 -123 -11 -4 -3 -8
1 -8 8 0 10 -2 10 -8 1 -4 -7 -25 -11 -50 -10 -24 2 -42 -2 -42 -8 0 -5 -5 -3
-10 5 -7 10 -10 11 -10 2 0 -8 -11 -11 -35 -9 -20 3 -38 0 -41 -5 -3 -5 -13
-3 -22 4 -13 11 -14 11 -8 -1 7 -11 1 -13 -28 -9 -20 2 -36 1 -36 -3 0 -4 -8
-6 -17 -4 -10 1 -24 -3 -32 -9 -12 -9 -13 -8 -6 4 8 13 7 13 -8 1 -9 -7 -17
-10 -17 -5 0 5 -5 2 -10 -6 -7 -11 -10 -11 -10 -2 0 10 -5 10 -20 2 -11 -6
-25 -8 -31 -5 -5 4 -16 1 -24 -5 -8 -7 -15 -10 -15 -8 0 3 -25 0 -55 -7 -41
-10 -53 -10 -48 -2 4 7 -1 6 -10 -2 -9 -7 -24 -11 -32 -7 -8 3 -15 2 -15 -3 0
-5 -9 -11 -20 -14 -11 -3 -20 0 -20 6 0 9 -2 9 -8 0 -4 -6 -19 -14 -32 -16
-14 -2 -33 -7 -43 -12 -9 -4 -28 -5 -42 -3 -14 3 -23 1 -22 -6 1 -6 -15 -11
-40 -11 -22 0 -39 -3 -37 -7 5 -7 -62 -28 -97 -31 -11 -1 -19 -4 -19 -8 0 -4
-13 -6 -29 -5 -17 1 -28 -2 -25 -6 3 -4 0 -9 -5 -9 -30 -4 -133 -39 -148 -52
-9 -6 -13 -5 -13 4 0 9 -3 10 -8 4 -4 -5 -18 -16 -31 -23 -19 -11 -22 -11 -15
0 6 11 5 11 -9 0 -9 -8 -22 -10 -28 -6 -7 4 -9 3 -6 -3 10 -16 -18 -24 -32
-10 -9 9 -11 8 -6 -4 3 -9 0 -16 -7 -17 -23 -2 -43 -8 -64 -20 -12 -6 -24 -8
-28 -5 -3 3 -6 1 -6 -5 0 -7 -3 -11 -7 -10 -5 1 -18 -3 -29 -10 -12 -6 -24 -8
-28 -5 -3 3 -6 1 -6 -6 0 -7 -4 -9 -10 -6 -5 3 -10 2 -10 -3 0 -5 -6 -9 -12
-9 -7 0 -51 -18 -98 -41 -164 -77 -205 -96 -212 -94 -5 1 -8 -2 -8 -7 0 -10
-56 -35 -65 -30 -4 2 -11 -4 -16 -13 -6 -10 -17 -18 -24 -18 -8 0 -15 -5 -15
-11 0 -5 -4 -8 -9 -5 -4 3 -19 -3 -31 -14 -22 -19 -35 -24 -52 -21 -5 0 -8 -4
-8 -9 0 -6 -21 -20 -47 -33 -27 -12 -52 -27 -58 -33 -5 -6 -26 -20 -45 -30
-19 -11 -43 -27 -54 -36 -10 -10 -22 -15 -26 -13 -5 3 -11 -2 -14 -11 -3 -8
-10 -12 -16 -9 -5 3 -10 2 -10 -4 0 -6 -14 -18 -32 -27 -17 -9 -40 -25 -51
-35 -11 -10 -28 -21 -38 -24 -9 -3 -20 -12 -23 -20 -3 -8 -10 -15 -16 -15 -10
0 -37 -20 -72 -52 -10 -10 -22 -18 -28 -18 -5 0 -10 -4 -10 -10 0 -5 -5 -10
-11 -10 -7 0 -22 -11 -35 -26 -13 -14 -24 -21 -24 -17 0 4 -4 3 -8 -2 -4 -6
-38 -37 -77 -70 -38 -33 -71 -63 -73 -67 -2 -5 -10 -8 -18 -8 -8 0 -14 -7 -14
-15 0 -8 -6 -15 -13 -15 -7 0 -21 -11 -31 -25 -10 -13 -22 -23 -26 -20 -4 2
-13 -7 -20 -20 -7 -14 -17 -25 -21 -25 -10 0 -213 -208 -304 -311 -88 -101
-148 -173 -210 -254 -39 -49 -73 -91 -77 -93 -5 -2 -8 -8 -8 -13 0 -7 -28 -48
-78 -114 -63 -84 -336 -540 -337 -565 0 -3 -14 -32 -31 -65 -34 -65 -125 -264
-128 -280 -1 -5 -12 -30 -23 -55 -11 -25 -31 -74 -44 -110 -12 -36 -27 -71
-32 -77 -5 -7 -6 -13 -2 -13 4 0 2 -7 -5 -15 -6 -8 -9 -19 -5 -25 3 -5 1 -10
-6 -10 -7 0 -10 -3 -6 -6 3 -4 0 -19 -9 -35 -8 -16 -12 -29 -8 -29 4 0 1 -7
-6 -15 -7 -8 -9 -15 -5 -15 4 0 2 -7 -5 -15 -6 -8 -9 -19 -5 -25 3 -5 1 -10
-6 -10 -7 0 -10 -3 -6 -6 3 -4 0 -22 -8 -40 -8 -19 -11 -34 -8 -34 3 0 0 -7
-7 -15 -7 -8 -10 -15 -6 -15 3 0 1 -11 -4 -25 -5 -14 -12 -36 -14 -48 -3 -12
-8 -33 -11 -47 -4 -14 -7 -31 -7 -37 -1 -7 -5 -13 -9 -13 -4 0 -6 -9 -4 -20 2
-11 0 -22 -5 -25 -4 -3 -7 -16 -5 -30 1 -14 -1 -25 -4 -25 -4 0 -8 -12 -9 -27
-1 -16 -6 -29 -10 -31 -5 -1 -7 -16 -6 -32 1 -17 -1 -30 -5 -30 -4 0 -6 -13
-5 -30 1 -17 -3 -30 -9 -30 -7 0 -5 -5 3 -10 8 -5 10 -10 5 -10 -6 0 -12 -12
-14 -27 -6 -56 -9 -78 -11 -78 -4 0 -10 -51 -10 -78 0 -20 -3 -26 -12 -21 -10
6 -11 5 -1 -8 7 -8 10 -17 7 -20 -6 -7 -14 -63 -17 -130 -1 -25 -5 -49 -9 -53
-4 -4 -4 -14 -1 -22 3 -8 0 -19 -8 -24 -11 -7 -11 -9 -1 -9 9 0 11 -10 7 -32
-3 -18 -7 -70 -9 -116 -2 -45 -6 -85 -9 -89 -4 -3 -2 -12 4 -20 6 -7 8 -13 3
-13 -9 0 -10 -269 -1 -293 3 -8 1 -20 -3 -28 -5 -8 -4 -19 2 -26 7 -9 7 -18
-3 -30 -11 -13 -11 -15 -1 -9 16 10 13 -25 -3 -36 -7 -5 -6 -8 1 -8 5 0 11
-19 13 -43 2 -23 5 -64 7 -92 3 -27 5 -54 6 -60 0 -5 -3 -19 -7 -30 -6 -16 -5
-17 4 -5 10 12 11 8 9 -20 -1 -19 1 -40 4 -45 3 -6 5 -21 4 -35 -1 -14 3 -31
8 -39 9 -12 8 -13 -3 -6 -11 6 -12 5 -5 -6 9 -15 11 -25 18 -84 2 -22 9 -52
15 -68 8 -19 7 -27 0 -27 -8 0 -7 -5 1 -15 7 -8 9 -15 6 -15 -4 0 -2 -10 5
-21 9 -17 8 -20 -3 -13 -10 6 -11 5 -1 -7 7 -8 13 -32 15 -52 1 -20 6 -37 10
-37 4 0 7 -3 7 -7 -1 -5 0 -10 1 -13 7 -19 5 -50 -4 -50 -6 0 -3 -5 7 -11 15
-9 16 -13 5 -27 -11 -13 -11 -14 1 -7 11 6 13 2 9 -19 -3 -14 -1 -29 5 -33 6
-4 7 -1 2 8 -5 8 -4 11 0 7 14 -13 15 -59 2 -52 -7 3 -4 -1 5 -9 20 -16 25
-32 7 -21 -6 3 -3 -5 6 -19 9 -15 14 -31 10 -37 -3 -5 -1 -10 5 -10 6 0 9 -4
5 -9 -3 -5 -1 -12 5 -16 5 -3 10 -22 10 -41 0 -19 5 -34 10 -34 6 0 10 -13 10
-30 0 -16 5 -30 10 -30 12 0 9 -22 -5 -32 -6 -4 -2 -8 8 -8 9 0 16 -3 16 -7
-1 -5 0 -10 1 -13 4 -11 11 -46 13 -67 1 -11 5 -19 8 -17 10 6 21 -45 13 -58
-4 -6 -3 -8 3 -5 12 7 57 -118 48 -133 -3 -6 -1 -9 6 -8 7 2 17 -13 23 -33 6
-20 18 -44 26 -55 8 -10 10 -15 4 -11 -6 3 -11 0 -11 -8 0 -8 3 -14 6 -13 19
2 22 -4 10 -19 -9 -10 -9 -14 -2 -10 15 10 37 -29 28 -51 -3 -9 -3 -13 1 -10
9 10 90 -155 86 -174 -1 -5 3 -8 9 -8 5 0 7 -4 4 -10 -3 -5 -1 -10 4 -10 6 0
11 -6 11 -14 0 -8 5 -16 10 -18 6 -2 11 -17 13 -35 1 -17 5 -29 8 -27 12 7 31
-25 25 -41 -3 -10 -2 -13 4 -10 6 4 15 -7 21 -24 6 -17 15 -31 20 -31 5 0 9
-6 9 -14 0 -8 6 -21 14 -28 7 -8 16 -24 20 -36 4 -12 14 -29 23 -37 8 -9 16
-26 17 -40 0 -13 5 -23 10 -22 5 1 14 -8 21 -19 6 -12 17 -29 24 -38 7 -9 10
-16 5 -16 -5 0 -1 -5 8 -11 10 -5 18 -16 18 -23 0 -8 7 -19 15 -26 8 -7 12
-16 9 -21 -3 -5 2 -9 10 -9 9 0 15 -3 14 -7 -2 -5 10 -25 25 -45 17 -21 26
-42 21 -49 -4 -7 -3 -9 4 -5 6 3 16 -3 23 -16 12 -22 22 -36 49 -66 42 -47
118 -161 112 -168 -4 -4 -2 -4 4 -1 14 8 77 -69 69 -83 -4 -6 -1 -9 7 -8 8 2
12 -5 10 -17 -2 -14 0 -16 6 -7 10 15 52 -29 52 -56 0 -14 2 -15 10 -2 6 9 10
10 10 3 0 -6 18 -30 40 -52 22 -22 40 -45 40 -51 0 -6 5 -8 10 -5 6 3 10 2 10
-4 0 -12 219 -231 231 -231 5 0 9 -6 9 -14 0 -7 10 -16 21 -19 15 -4 20 -11
15 -22 -3 -10 -2 -14 5 -9 6 3 21 -3 33 -14 11 -11 37 -35 56 -54 20 -18 52
-44 73 -58 20 -14 37 -31 37 -38 0 -7 4 -10 10 -7 5 3 10 1 10 -4 0 -6 7 -11
15 -11 13 0 19 -10 17 -30 0 -3 8 -6 19 -7 10 -1 33 -16 51 -32 18 -17 39 -31
45 -31 7 0 18 -9 25 -20 7 -11 16 -20 21 -20 10 0 71 -42 75 -53 2 -4 17 -14
33 -23 17 -8 27 -20 23 -26 -4 -7 -3 -8 4 -4 7 4 32 -7 56 -23 25 -17 49 -31
55 -31 6 0 11 -4 11 -9 0 -5 14 -14 30 -21 17 -7 30 -16 30 -21 0 -5 7 -9 15
-9 8 0 15 -4 15 -10 0 -5 7 -10 15 -10 8 0 15 -5 15 -10 0 -6 3 -9 8 -8 16 3
119 -55 133 -75 3 -5 9 -9 12 -8 16 1 77 -30 77 -39 0 -5 7 -6 17 -3 11 4 14
3 9 -5 -4 -7 -1 -12 6 -12 20 0 68 -24 68 -33 0 -5 4 -6 9 -3 5 3 21 -4 37
-16 16 -13 25 -16 20 -8 -6 13 -6 13 6 0 7 -8 22 -16 32 -18 11 -2 29 -10 41
-18 12 -8 25 -11 28 -7 4 3 7 2 7 -4 0 -10 36 -26 53 -24 4 1 7 -3 7 -9 0 -6
3 -9 8 -8 4 0 16 -2 27 -7 55 -21 75 -30 75 -35 0 -3 12 -6 26 -7 15 0 29 -5
33 -10 3 -4 13 -9 21 -11 8 -2 17 -8 18 -13 2 -5 7 -7 11 -4 4 2 21 1 37 -4
21 -6 28 -13 26 -27 -2 -14 -1 -16 6 -5 10 13 47 6 107 -21 11 -5 30 -10 43
-11 17 -1 21 -6 17 -22 -6 -19 -5 -19 5 -2 11 18 12 18 33 0 14 -13 18 -14 13
-3 -4 8 0 6 8 -4 12 -15 16 -16 17 -5 0 8 4 6 9 -6 5 -11 9 -14 9 -7 1 9 8 11
21 7 11 -3 32 -8 47 -11 16 -3 36 -15 46 -27 15 -19 16 -19 10 -3 -5 15 -3 17
8 10 8 -4 23 -10 34 -12 11 -2 25 -5 32 -6 7 -1 15 -5 19 -8 3 -4 12 -4 20 -1
8 3 14 0 14 -7 0 -7 6 -10 14 -7 8 3 17 1 20 -6 3 -8 5 -7 5 2 1 11 5 10 17
-5 8 -10 13 -13 9 -7 -3 7 -1 13 4 13 6 0 11 -3 11 -7 0 -5 10 -9 23 -9 34 -3
51 -8 59 -19 5 -6 8 -5 8 3 0 7 4 10 10 7 13 -8 50 -17 78 -18 12 -1 22 -5 22
-9 0 -4 8 -7 18 -6 37 3 53 -2 46 -14 -6 -10 -5 -10 7 -1 12 10 40 11 59 2 10
-4 26 -7 53 -8 19 -1 26 -5 21 -13 -6 -10 -4 -10 7 -1 14 14 33 18 26 5 -3 -4
14 -7 36 -7 26 0 47 -5 55 -15 11 -13 12 -13 10 0 -2 9 3 14 12 12 8 -2 29 -5
45 -7 19 -1 29 -7 27 -15 -3 -11 0 -11 12 -1 10 8 31 11 58 7 24 -3 65 -5 91
-5 36 -1 46 -4 41 -13 -6 -10 -5 -10 7 -1 15 12 36 12 56 0 6 -4 14 -3 18 3 4
6 11 7 18 3 10 -6 289 -6 377 1 19 1 38 -3 42 -8 5 -7 8 -7 8 2 0 6 5 12 11
12 5 0 7 -6 3 -12 -6 -10 -5 -10 7 -2 8 7 38 14 67 15 43 3 51 1 47 -11 -3 -9
0 -8 9 4 8 10 20 15 26 11 6 -4 17 -1 25 5 8 7 15 8 15 3 0 -5 13 -9 29 -8 16
0 27 3 24 7 -2 5 15 8 39 9 24 0 52 2 63 5 11 2 42 6 70 9 27 4 53 9 59 12 5
4 6 0 1 -8 -8 -12 -6 -12 8 0 10 8 27 11 43 7 17 -5 23 -3 19 4 -4 6 6 10 24
10 16 0 41 4 56 10 20 8 24 7 19 -3 -5 -8 -2 -8 9 2 9 7 28 11 42 9 13 -3 22
-1 19 3 -3 5 3 10 13 10 45 3 64 7 70 13 3 3 13 0 21 -7 12 -9 14 -9 8 0 -5 9
5 15 34 19 22 4 43 11 46 16 3 5 16 1 27 -9 19 -16 20 -16 8 0 -12 15 -11 17
13 17 15 0 36 5 47 11 15 8 24 7 35 -2 12 -10 13 -9 8 6 -5 12 -4 16 3 12 6
-4 14 -1 16 5 4 10 6 9 6 -1 1 -11 4 -11 17 0 21 17 44 20 44 6 0 -6 6 -3 13
8 8 10 19 15 25 11 7 -4 12 -3 12 3 0 6 7 8 15 5 8 -4 15 -1 15 5 0 6 10 11
23 11 13 0 27 3 31 7 4 5 12 9 17 9 5 1 10 2 12 4 5 4 43 12 64 14 11 0 19 4
16 9 -2 4 1 8 6 8 14 2 29 6 36 9 3 1 9 3 14 4 5 0 13 4 17 8 4 4 13 3 21 -4
11 -9 12 -7 6 7 -5 14 -3 17 10 12 9 -3 19 -2 23 4 3 6 13 8 21 5 8 -3 12 -2
9 3 -8 13 20 21 32 9 6 -6 12 -6 17 3 5 8 4 10 -3 5 -7 -4 -12 -3 -12 2 0 9
55 26 73 23 4 0 7 4 7 10 0 6 6 9 12 7 7 -3 19 1 26 9 7 7 22 13 33 13 10 0
19 6 19 13 0 9 2 9 9 -1 7 -11 9 -10 15 3 3 9 10 13 16 10 5 -3 10 -3 10 2 0
4 15 14 33 22 17 7 57 26 88 42 31 15 59 25 63 22 3 -4 6 -1 6 6 0 7 5 9 10 6
6 -3 10 -2 10 4 0 6 11 13 25 17 14 3 25 11 25 17 0 6 3 7 6 4 4 -4 19 2 33
12 14 10 36 22 49 25 12 4 22 11 22 16 0 5 7 6 17 3 11 -4 14 -3 9 5 -4 7 -2
13 3 13 6 1 16 2 21 3 6 0 14 6 18 12 7 10 36 24 48 23 4 0 10 5 15 13 5 7 13
13 19 13 6 0 14 5 18 10 13 18 53 36 64 29 7 -5 8 -3 4 5 -5 8 0 14 13 18 11
3 18 9 15 14 -3 5 4 9 15 9 12 0 21 5 21 11 0 5 5 7 10 4 6 -3 13 1 16 9 3 9
12 16 20 16 8 0 14 4 14 8 0 10 51 37 63 33 5 -1 5 3 2 9 -4 7 2 14 14 17 12
3 21 9 21 14 0 5 6 9 14 9 8 0 16 7 20 15 3 8 9 14 13 13 5 -2 15 3 23 10 50
42 64 51 73 45 5 -3 7 -1 3 5 -3 5 -2 12 3 14 13 4 63 44 112 89 21 20 39 34
39 32 0 -3 6 0 13 6 8 6 17 7 21 3 4 -4 6 -2 4 4 -3 10 55 74 66 74 3 0 35 29
71 64 36 34 65 61 65 58 0 -8 60 62 60 70 0 4 7 5 15 2 9 -4 15 0 15 8 0 7 8
21 18 29 31 28 156 163 221 239 36 41 75 85 88 98 13 13 23 26 23 30 0 6 13
22 72 92 7 8 12 16 11 17 -2 2 5 11 15 21 9 10 24 29 32 42 8 12 20 28 26 34
5 6 34 47 64 91 29 44 57 82 62 83 4 2 8 9 8 16 0 7 11 26 25 42 14 16 25 34
25 40 0 5 9 20 20 32 12 12 18 22 15 22 -3 0 6 17 20 37 14 21 25 41 25 46 0
4 9 17 20 29 10 12 17 25 14 30 -3 4 -1 8 4 8 5 0 17 18 27 40 10 22 22 40 27
40 4 0 7 3 6 8 -3 10 124 265 137 274 6 4 7 8 3 8 -4 0 6 29 23 65 71 157 205
515 192 515 -3 0 -1 6 4 13 9 11 38 106 36 117 -1 3 3 11 9 17 6 7 8 13 5 13
-3 0 0 15 8 34 8 18 11 36 8 40 -4 3 -2 6 3 6 5 0 10 10 10 23 2 21 11 62 14
62 1 0 3 11 6 24 2 14 9 30 15 37 7 8 7 14 -1 19 -6 3 -7 11 -4 17 6 9 13 33
31 108 3 14 5 33 5 43 0 9 2 17 6 17 4 0 8 15 8 33 2 43 14 128 20 147 3 8 8
40 11 71 4 54 10 94 13 94 2 0 9 87 11 147 2 32 5 58 9 58 9 0 9 650 0 674 -4
12 -4 31 1 44 5 12 5 22 0 22 -5 0 -8 27 -7 60 0 33 -2 60 -5 60 -3 0 -5 18
-4 40 1 22 -2 40 -5 40 -4 0 -7 15 -8 33 -1 17 -3 53 -5 79 -1 25 -5 44 -8 42
-3 -2 -6 11 -7 28 0 17 -6 53 -13 81 -9 40 -9 51 2 58 11 7 11 9 -3 9 -11 0
-16 6 -13 20 2 11 -1 22 -6 26 -6 4 -5 12 3 22 7 10 8 13 3 9 -5 -4 -15 19
-23 55 -7 35 -15 70 -17 78 -15 53 -22 90 -17 90 3 0 1 5 -5 11 -6 6 -9 17 -7
24 3 7 0 16 -6 20 -8 5 -7 11 2 23 10 12 10 14 1 8 -12 -6 -18 5 -14 27 0 4
-4 7 -10 7 -8 0 -8 4 0 14 9 11 8 18 -5 30 -10 10 -14 27 -12 41 3 13 1 22 -3
19 -13 -8 -28 59 -16 74 7 9 6 11 -5 7 -15 -6 -26 22 -31 82 -1 11 -5 19 -9
17 -3 -2 -9 10 -13 27 -4 17 -13 42 -20 56 -7 14 -12 34 -10 44 2 11 0 17 -4
14 -8 -5 -18 17 -27 59 -3 11 -10 26 -16 33 -9 11 -9 16 1 22 9 6 6 10 -11 14
-22 6 -22 7 -3 21 14 10 15 14 5 13 -8 -1 -15 0 -16 3 0 3 -7 16 -14 30 -8 14
-13 28 -12 33 1 4 -3 7 -8 7 -6 0 -10 9 -10 20 0 11 -4 20 -10 20 -5 0 -9 3
-9 8 1 4 0 10 -1 15 -1 4 -3 10 -5 15 -1 4 -9 24 -19 44 -9 21 -16 41 -15 44
0 4 -4 10 -9 13 -5 3 -23 36 -41 73 -17 37 -35 70 -41 73 -6 4 -8 10 -5 15 3
5 -2 15 -10 24 -9 8 -15 17 -13 18 1 2 -6 15 -16 30 -10 15 -14 33 -10 39 4 8
3 9 -4 5 -7 -4 -12 -1 -12 8 0 9 -4 16 -10 16 -5 0 -12 11 -16 25 -3 14 -10
25 -16 25 -5 0 -6 5 -3 10 3 6 1 10 -4 10 -6 0 -11 6 -11 13 0 7 -9 23 -20 35
-12 12 -18 22 -14 22 4 0 -1 9 -11 20 -10 11 -15 20 -12 20 3 0 -5 12 -18 26
-14 15 -25 33 -25 40 0 8 -4 14 -10 14 -5 0 -10 7 -10 15 0 8 -4 15 -10 15 -5
0 -10 10 -10 22 0 12 -3 19 -6 15 -7 -7 -54 58 -54 73 0 6 -4 10 -10 10 -5 0
-10 5 -10 11 0 7 -13 24 -29 39 -21 20 -26 32 -19 44 6 11 5 14 -5 10 -8 -3
-22 7 -32 23 -10 15 -25 34 -32 41 -7 8 -10 18 -7 24 4 6 2 8 -3 5 -13 -8 -66
59 -58 73 4 6 2 9 -3 8 -10 -3 -32 19 -87 86 -16 20 -49 57 -73 81 -24 25 -39
45 -35 45 4 0 0 5 -10 11 -9 6 -14 15 -11 21 4 6 3 8 -3 5 -11 -7 -94 78 -85
87 3 3 -1 6 -8 6 -15 0 -176 160 -173 172 2 4 -4 5 -12 2 -10 -4 -15 0 -15 12
0 9 -3 15 -6 12 -3 -4 -21 8 -40 25 -87 81 -105 97 -111 97 -3 0 -13 7 -22 15
-76 70 -91 83 -91 78 0 -3 -8 4 -19 15 -10 12 -21 19 -25 15 -3 -3 -6 -1 -6 5
0 7 -7 12 -16 12 -8 0 -12 5 -9 10 3 6 1 10 -4 10 -17 0 -23 3 -51 27 -14 13
-35 31 -47 42 -12 10 -24 16 -27 13 -3 -3 -6 0 -6 6 0 7 -7 12 -16 12 -8 0
-12 5 -9 10 3 6 -3 10 -14 10 -12 0 -21 5 -21 10 0 6 -7 10 -15 10 -8 0 -15 4
-15 8 0 5 -16 16 -35 25 -19 9 -35 21 -35 26 0 5 -10 13 -22 17 -13 3 -36 16
-53 28 -41 29 -67 45 -87 52 -10 3 -18 9 -18 13 0 4 -16 13 -35 21 -19 8 -35
16 -35 19 0 4 -15 12 -32 20 -18 8 -35 17 -38 21 -7 8 -254 130 -264 130 -4 0
-17 10 -28 23 -11 12 -16 16 -12 8 4 -7 3 -12 -2 -9 -65 31 -109 51 -119 52
-7 1 -20 8 -29 15 -9 7 -16 10 -16 6 0 -5 -9 0 -20 10 -11 10 -20 15 -20 10 0
-4 -6 -3 -12 2 -7 6 -21 9 -31 8 -9 -2 -15 1 -12 5 3 5 -5 10 -17 12 -13 2
-22 9 -21 15 1 6 -6 9 -17 6 -11 -3 -26 0 -33 6 -8 6 -17 8 -20 4 -4 -3 -7 -1
-7 6 0 7 -5 9 -10 6 -6 -4 -16 -3 -23 3 -7 5 -47 19 -89 32 -43 13 -78 27 -78
32 0 4 -3 7 -7 7 -26 -4 -63 3 -58 10 3 6 -4 8 -15 6 -11 -2 -20 0 -20 5 0 4
-9 6 -20 3 -11 -3 -20 -1 -20 4 0 6 -14 10 -31 11 -17 0 -36 6 -44 12 -7 6
-29 12 -49 13 -20 1 -36 5 -36 10 0 4 -11 7 -25 7 -14 0 -25 6 -25 13 0 9 -3
8 -9 -2 -7 -11 -11 -10 -20 5 -6 11 -11 14 -11 8 0 -12 -50 -7 -50 5 0 4 -9 7
-20 8 -13 1 -18 -2 -14 -10 5 -8 3 -8 -7 1 -7 6 -24 12 -37 12 -14 0 -21 4
-16 11 4 7 -1 7 -16 -1 -12 -7 -20 -7 -16 -2 3 6 -8 10 -29 10 -20 0 -41 5
-48 10 -8 7 -18 7 -27 2 -9 -5 -19 -5 -26 1 -7 6 -28 11 -48 12 -20 1 -36 4
-36 7 0 5 -28 8 -107 11 -18 1 -33 5 -33 9 0 3 -7 7 -15 7 -8 0 -15 -5 -15
-11 0 -8 -3 -8 -8 -1 -4 6 -16 11 -27 11 -109 3 -116 4 -109 17 6 9 5 9 -8 0
-8 -7 -18 -10 -22 -6 -11 11 -37 12 -30 1 4 -7 0 -7 -12 -1 -11 5 -35 9 -54 8
-19 -1 -41 3 -47 8 -7 5 -13 6 -13 1 0 -5 -83 -7 -186 -4 -102 3 -186 4 -187
3z"/>
<path d="M9406 7322 c-3 -5 1 -9 9 -9 8 0 12 4 9 9 -3 4 -7 8 -9 8 -2 0 -6 -4
-9 -8z"/>
<path d="M26 4282 c-3 -5 1 -9 9 -9 8 0 12 4 9 9 -3 4 -7 8 -9 8 -2 0 -6 -4
-9 -8z"/>
<path d="M370 3041 c0 -6 4 -13 10 -16 6 -3 7 1 4 9 -7 18 -14 21 -14 7z"/>
<path d="M730 2320 c0 -5 5 -10 11 -10 5 0 7 5 4 10 -3 6 -8 10 -11 10 -2 0
-4 -4 -4 -10z"/>
<path d="M2767 479 c7 -7 15 -10 18 -7 3 3 -2 9 -12 12 -14 6 -15 5 -6 -5z"/>
</g>
</svg>
