<svg width="187" height="79" viewBox="0 0 187 79" fill="none" xmlns="http://www.w3.org/2000/svg">
<path d="M180.666 58.8246C176.813 62.8587 172.766 66.7941 167.473 68.8378C161.773 71.041 156.915 64.7084 152.803 61.7005C147.019 57.4693 138.793 58.2916 133.578 63.0258C130.513 65.8069 127.953 69.7856 124.055 71.4542C119.536 73.3889 114.156 66.4327 110.875 64.1071C103.024 58.5417 96.9426 65.4319 90.8575 69.9632C83.5043 75.4397 75.4642 57.0065 65.7403 62.3914C62.3425 64.2733 61.2031 67.4961 59.2264 70.6413C54.7675 77.7359 49.2136 67.9826 46.0169 64.9298C40.2727 59.4452 33.8633 59.1029 28.1861 64.6173C24.7627 67.943 20.901 75.8557 15.1683 72.4796C11.1194 70.0951 8.37779 65.2271 5.09847 61.9465C2.8336 59.68 -1.92293 61.9129 0.844501 64.6805C5.51021 69.3482 11.3627 79.5478 19.3697 78.3591C23.5219 77.7428 26.2851 75.6049 29.0511 72.5386C30.9515 70.4323 32.5827 68.1421 34.7965 66.3316C38.4331 63.3589 42.5468 68.2821 44.8116 70.8976C49.3878 76.1819 56.3292 82.638 62.7454 75.4523C64.1111 73.9238 65.0568 72.4831 66.0211 70.704C68.9717 65.2617 73.906 67.199 77.7319 70.9766C80.9645 74.1693 85.1294 76.5352 89.7455 76.1868C94.103 75.857 97.9093 71.5991 101.001 68.9965C106.447 64.4116 110.307 69.9087 114.493 73.2283C121.677 78.9266 128.694 76.3656 134.423 70.3663C138.591 66.0034 143.432 61.4262 149.72 65.3807C153.879 67.9956 156.859 71.5331 161.48 73.5156C170.533 77.402 180.107 67.8015 185.629 62.0192C187.893 59.6507 182.735 56.6584 180.666 58.8246Z" fill="#005B6E"/>
<path d="M180.675 29.8246C176.822 33.8587 172.774 37.7941 167.482 39.8378C161.781 42.041 156.924 35.7084 152.811 32.7005C147.028 28.4693 138.801 29.2916 133.587 34.0258C130.522 36.8069 127.961 40.7856 124.064 42.4542C119.544 44.3889 114.165 37.4327 110.884 35.1071C103.033 29.5417 96.9513 36.4319 90.8663 40.9632C83.513 46.4397 75.4729 28.0065 65.749 33.3914C62.3512 35.2733 61.2118 38.4961 59.2352 41.6413C54.7763 48.7359 49.2223 38.9826 46.0256 35.9298C40.2814 30.4452 33.8721 30.1029 28.1948 35.6173C24.7714 38.943 20.9097 46.8557 15.177 43.4796C11.1282 41.0951 8.38652 36.2271 5.10719 32.9465C2.84233 30.68 -1.9142 32.9129 0.85323 35.6805C5.51894 40.3482 11.3715 50.5478 19.3785 49.3591C23.5306 48.7428 26.2938 46.6049 29.0598 43.5386C30.9603 41.4323 32.5914 39.1421 34.8052 37.3316C38.4419 34.3589 42.5555 39.2821 44.8203 41.8976C49.3965 47.1819 56.3379 53.638 62.7542 46.4523C64.1198 44.9238 65.0655 43.4831 66.0299 41.704C68.9804 36.2617 73.9147 38.199 77.7406 41.9766C80.9733 45.1693 85.1381 47.5352 89.7543 47.1868C94.1117 46.857 97.918 42.5991 101.009 39.9965C106.456 35.4116 110.316 40.9087 114.502 44.2283C121.686 49.9266 128.703 47.3656 134.432 41.3663C138.6 37.0034 143.441 32.4262 149.729 36.3807C153.887 38.9956 156.868 42.5331 161.489 44.5156C170.541 48.402 180.116 38.8015 185.638 33.0192C187.901 30.6507 182.743 27.6584 180.675 29.8246Z" fill="#005B6E"/>
<path d="M180.684 0.824556C176.831 4.85867 172.783 8.79414 167.491 10.8378C161.79 13.041 156.933 6.70839 152.82 3.70052C147.037 -0.530743 138.81 0.291612 133.595 5.02575C130.531 7.80685 127.97 11.7856 124.072 13.4542C119.553 15.3889 114.173 8.43268 110.892 6.10711C103.042 0.541725 96.96 7.43188 90.8749 11.9632C83.5217 17.4397 75.4816 -0.993505 65.7577 4.39139C62.3599 6.27331 61.2205 9.49608 59.2438 12.6413C54.7849 19.7359 49.231 9.98255 46.0343 6.92979C40.2901 1.4452 33.8807 1.10288 28.2035 6.61733C24.7801 9.94304 20.9184 17.8557 15.1857 14.4796C11.1368 12.0951 8.39519 7.22707 5.11586 3.9465C2.85099 1.67996 -1.90553 3.91294 0.861897 6.6805C5.5276 11.3482 11.3801 21.5478 19.3871 20.3591C23.5393 19.7428 26.3024 17.6049 29.0685 14.5386C30.9689 12.4323 32.6001 10.1421 34.8139 8.33161C38.4505 5.35895 42.5642 10.2821 44.829 12.8976C49.4052 18.1819 56.3466 24.638 62.7628 17.4523C64.1285 15.9238 65.0741 14.4831 66.0385 12.704C68.9891 7.2617 73.9234 9.19904 77.7493 12.9766C80.9819 16.1693 85.1468 18.5352 89.7629 18.1868C94.1204 17.857 97.9267 13.5991 101.018 10.9965C106.464 6.4116 110.324 11.9087 114.51 15.2283C121.695 20.9266 128.711 18.3656 134.441 12.3663C138.608 8.00336 143.449 3.42623 149.738 7.38067C153.896 9.99564 156.877 13.5331 161.498 15.5156C170.55 19.402 180.124 9.80147 185.647 4.01925C187.91 1.6507 182.752 -1.34162 180.684 0.824556Z" fill="#005B6E"/>
</svg>
