<svg width="70" height="72" viewBox="0 0 70 72" fill="none" xmlns="http://www.w3.org/2000/svg">
<path fill-rule="evenodd" clip-rule="evenodd" d="M35.5845 62.9923C43.7712 60.2628 51.8258 59.7472 60.2782 58.8162C61.929 58.6346 63.4096 59.8232 63.5928 61.4687C63.7761 63.1153 62.5816 64.5984 60.931 64.781C52.916 65.6636 45.2558 66.0932 37.4793 68.6841C35.9064 69.2085 34.2023 68.358 33.684 66.7867C33.1559 65.2171 34.0115 63.5157 35.5845 62.9923Z" fill="#FFBE42"/>
<path fill-rule="evenodd" clip-rule="evenodd" d="M17.9865 46.8476C29.5985 31.8814 44.9236 17.4257 60.7278 6.9102C62.1084 5.99299 63.9746 6.36688 64.8887 7.74572C65.8027 9.12456 65.4317 10.9885 64.0511 11.9057C48.7706 22.0739 33.9488 36.0544 22.7282 50.5255C21.7103 51.8338 19.8233 52.0716 18.5173 51.0565C17.2113 50.0414 16.9686 48.1559 17.9865 46.8476Z" fill="#FFBE42"/>
<path fill-rule="evenodd" clip-rule="evenodd" d="M3.7865 44.4419C0.653061 31.8655 3.17936 18.4373 7.31597 6.437C7.86157 4.87095 9.57002 4.03858 11.1285 4.57777C12.6971 5.11715 13.5276 6.82682 12.9919 8.39207C9.22023 19.3215 6.75633 31.5367 9.60846 42.9911C10.0092 44.5981 9.02734 46.2275 7.42432 46.6269C5.82137 47.0274 4.18719 46.0478 3.7865 44.4419Z" fill="#FFBE42"/>
</svg>
