<svg width="48" height="38" viewBox="0 0 48 38" fill="none" xmlns="http://www.w3.org/2000/svg">
<path d="M29.5459 37.1649C28.5929 37.1649 28.1163 36.6884 28.1163 35.7353V23.0274C28.1163 22.6038 28.2222 22.1802 28.434 21.7566L40.3477 1.58272C40.7713 1.05322 41.2478 0.682576 41.7773 0.47078C42.3068 0.258977 42.8893 0.153076 43.5247 0.153076H46.0663C46.5958 0.153076 46.9664 0.364875 47.1782 0.788474C47.39 1.10617 47.443 1.47682 47.3371 1.90042L40.3477 17.1499C39.9241 17.9971 39.7652 18.6855 39.8711 19.215C39.977 19.6386 40.4006 19.9033 41.1419 20.0092H43.8424C44.5837 20.1151 45.0602 20.3269 45.272 20.6446C45.5897 20.8564 45.7486 21.28 45.7486 21.9154V35.5764C45.7486 36.6354 45.272 37.1649 44.3189 37.1649H29.5459ZM1.42964 37.1649C0.476548 37.1649 0 36.6884 0 35.7353V23.0274C0 22.6038 0.158849 22.1802 0.476548 21.7566L12.3902 1.58272C12.8138 1.05322 13.2904 0.682576 13.8199 0.47078C14.3494 0.258977 14.8789 0.153076 15.4084 0.153076H18.1088C18.6383 0.153076 19.009 0.364875 19.2208 0.788474C19.4326 1.10617 19.4855 1.47682 19.3796 1.90042L12.2314 17.1499C11.9137 17.9971 11.8078 18.6855 11.9137 19.215C12.0196 19.6386 12.4432 19.9033 13.1845 20.0092H15.8849C16.6262 20.1151 17.1028 20.3269 17.3146 20.6446C17.6323 20.8564 17.7911 21.28 17.7911 21.9154V35.5764C17.7911 36.6354 17.3146 37.1649 16.3615 37.1649H1.42964Z" fill="#fff"/>
</svg>
